<svg role="img" viewBox="0 0 48 48" xmlns="http://www.w3.org/2000/svg" id="Polars--Streamline-Simple-Icons" height="48" width="48">
  <desc>
    Polars Streamline Icon: https://streamlinehq.com
  </desc>
  <title>Polars</title>
  <path d="M41.908 15.428h0.868c0.212 0 0.386 0.174 0.386 0.394v7.452a0.394 0.394 0 0 1 -0.386 0.386h-0.868a0.394 0.394 0 0 1 -0.394 -0.386V15.822c0 -0.22 0.174 -0.394 0.394 -0.394zm2.426 2.17h0.87c0.21 0 0.384 0.174 0.384 0.392v5.042a0.394 0.394 0 0 1 -0.384 0.386h-0.87a0.394 0.394 0 0 1 -0.394 -0.386v-5.04c0 -0.228 0.174 -0.394 0.394 -0.394zm2.412 2.766h0.86c0.22 0 0.394 0.174 0.394 0.394v1.436a0.394 0.394 0 0 1 -0.394 0.384h-0.86a0.394 0.394 0 0 1 -0.394 -0.392v-1.436a0.378 0.378 0 0 1 0.394 -0.38zm-7.258 -5.654h0.862a0.394 0.394 0 0 1 0.394 0.392v1.438a0.394 0.394 0 0 1 -0.394 0.378h-0.87a0.394 0.394 0 0 1 -0.392 -0.38v-1.436a0.394 0.394 0 0 1 0.392 -0.392Zm0 2.888h0.862a0.394 0.394 0 0 1 0.394 0.392v1.316a0.394 0.394 0 0 1 -0.394 0.386h-0.87a0.394 0.394 0 0 1 -0.392 -0.386v-1.316a0.394 0.394 0 0 1 0.392 -0.392zm0 2.774h0.862a0.394 0.394 0 0 1 0.394 0.386v2.16a0.394 0.394 0 0 1 -0.394 0.386h-0.87a0.394 0.394 0 0 1 -0.392 -0.384v-2.162a0.394 0.394 0 0 1 0.392 -0.386zm-2.48 -6.266h0.87a0.394 0.394 0 0 1 0.386 0.392v2.276a0.394 0.394 0 0 1 -0.386 0.392h-0.868a0.394 0.394 0 0 1 -0.394 -0.392V14.498a0.394 0.394 0 0 1 0.394 -0.392Zm0 3.854h0.87a0.394 0.394 0 0 1 0.386 0.394v4.324a0.394 0.394 0 0 1 -0.386 0.384h-0.868a0.394 0.394 0 0 1 -0.394 -0.384V18.354a0.394 0.394 0 0 1 0.394 -0.394ZM34.6 13.388h0.87a0.394 0.394 0 0 1 0.392 0.384v9.148a0.394 0.394 0 0 1 -0.392 0.384H34.6a0.394 0.394 0 0 1 -0.394 -0.384V13.772a0.394 0.394 0 0 1 0.394 -0.384zm0 20.348h0.87a0.394 0.394 0 0 1 0.392 0.394v1.436a0.394 0.394 0 0 1 -0.392 0.384H34.6a0.394 0.394 0 0 1 -0.394 -0.392v-1.436a0.394 0.394 0 0 1 0.394 -0.38zm-2.48 -1.928h0.87a0.394 0.394 0 0 1 0.392 0.394v3.356a0.394 0.394 0 0 1 -0.392 0.392h-0.862a0.394 0.394 0 0 1 -0.386 -0.392V32.2a0.394 0.394 0 0 1 0.386 -0.394zm0 -10.234h0.87a0.394 0.394 0 0 1 0.392 0.392v2.268a0.394 0.394 0 0 1 -0.392 0.4h-0.862a0.394 0.394 0 0 1 -0.386 -0.392v-2.276a0.394 0.394 0 0 1 0.386 -0.392zm0 -8.792h0.87a0.394 0.394 0 0 1 0.392 0.394v7.21a0.394 0.394 0 0 1 -0.392 0.394h-0.862a0.394 0.394 0 0 1 -0.386 -0.394V13.176a0.394 0.394 0 0 1 0.386 -0.394zm-2.44 0.12h0.868a0.394 0.394 0 0 1 0.394 0.394V17.5a0.394 0.394 0 0 1 -0.394 0.384h-0.87a0.394 0.394 0 0 1 -0.384 -0.384V13.296a0.394 0.394 0 0 1 0.384 -0.392zm0 5.784h0.868a0.394 0.394 0 0 1 0.394 0.386v12.276a0.394 0.394 0 0 1 -0.394 0.392h-0.87a0.394 0.394 0 0 1 -0.384 -0.392V19.072a0.394 0.394 0 0 1 0.384 -0.386Zm0 13.848h0.868a0.394 0.394 0 0 1 0.394 0.386v2.28a0.394 0.394 0 0 1 -0.394 0.386h-0.87a0.394 0.394 0 0 1 -0.384 -0.386v-2.28a0.394 0.394 0 0 1 0.384 -0.386zm-2.42 -19.276h0.86a0.394 0.394 0 0 1 0.394 0.4v9.85a0.394 0.394 0 0 1 -0.392 0.394h-0.87a0.394 0.394 0 0 1 -0.386 -0.394V13.66a0.394 0.394 0 0 1 0.386 -0.394Zm0 11.444h0.86a0.394 0.394 0 0 1 0.394 0.394v7.816a0.394 0.394 0 0 1 -0.392 0.394h-0.87a0.394 0.394 0 0 1 -0.386 -0.394v-7.816a0.394 0.394 0 0 1 0.386 -0.394Zm-2.434 -11.8h0.87a0.394 0.394 0 0 1 0.384 0.394v6.358a0.394 0.394 0 0 1 -0.384 0.392h-0.87a0.394 0.394 0 0 1 -0.394 -0.392V13.304a0.394 0.394 0 0 1 0.394 -0.394zm0 7.954h0.87a0.394 0.394 0 0 1 0.384 0.384v5.292a0.394 0.394 0 0 1 -0.384 0.386h-0.87a0.394 0.394 0 0 1 -0.394 -0.386V21.24a0.394 0.394 0 0 1 0.394 -0.384zm0 6.856h0.87a0.394 0.394 0 0 1 0.384 0.392v2.396a0.394 0.394 0 0 1 -0.384 0.394h-0.87a0.394 0.394 0 0 1 -0.394 -0.394v-2.396a0.394 0.394 0 0 1 0.394 -0.392zm-2.44 -15.044h0.868a0.394 0.394 0 0 1 0.392 0.38v2.886a0.394 0.394 0 0 1 -0.392 0.386h-0.878a0.394 0.394 0 0 1 -0.392 -0.386v-2.88a0.394 0.394 0 0 1 0.392 -0.392zm0 4.454h0.868a0.394 0.394 0 0 1 0.392 0.384v11.068a0.394 0.394 0 0 1 -0.392 0.392h-0.878a0.394 0.394 0 0 1 -0.392 -0.392V17.506a0.394 0.394 0 0 1 0.392 -0.384Zm-2.45 16.364h0.868a0.394 0.394 0 0 1 0.394 0.394v1.67a0.394 0.394 0 0 1 -0.394 0.394h-0.868a0.394 0.394 0 0 1 -0.386 -0.394v-1.67a0.394 0.394 0 0 1 0.386 -0.394zm0 -21.316h0.868a0.394 0.394 0 0 1 0.394 0.394v10.226a0.394 0.394 0 0 1 -0.394 0.386h-0.868a0.394 0.394 0 0 1 -0.386 -0.386v-10.22a0.394 0.394 0 0 1 0.386 -0.392Zm0 11.808h0.868a0.394 0.394 0 0 1 0.394 0.384v4.204a0.394 0.394 0 0 1 -0.394 0.392h-0.868a0.394 0.394 0 0 1 -0.386 -0.392V24.36a0.394 0.394 0 0 1 0.386 -0.384zm-2.442 7.71h0.868a0.394 0.394 0 0 1 0.386 0.378v3.484a0.394 0.394 0 0 1 -0.386 0.394h-0.868a0.394 0.394 0 0 1 -0.394 -0.394v-3.476a0.394 0.394 0 0 1 0.394 -0.394zm0 -12.05h0.868a0.394 0.394 0 0 1 0.386 0.394v8.54a0.394 0.394 0 0 1 -0.386 0.386h-0.868a0.394 0.394 0 0 1 -0.394 -0.392v-8.534a0.394 0.394 0 0 1 0.394 -0.38Zm0 -7.588h0.868a0.394 0.394 0 0 1 0.386 0.392v6.01a0.394 0.394 0 0 1 -0.386 0.392h-0.868a0.394 0.394 0 0 1 -0.394 -0.392V12.44a0.394 0.394 0 0 1 0.394 -0.392Zm-2.442 0.12h0.87a0.394 0.394 0 0 1 0.392 0.394V14a0.394 0.394 0 0 1 -0.392 0.384h-0.87A0.394 0.394 0 0 1 14.664 14v-1.436a0.394 0.394 0 0 1 0.386 -0.394Zm0 2.896h0.87a0.394 0.394 0 0 1 0.392 0.384v11.082a0.394 0.394 0 0 1 -0.392 0.386h-0.87a0.394 0.394 0 0 1 -0.386 -0.386V15.46a0.394 0.394 0 0 1 0.386 -0.386Zm0 12.646h0.87a0.394 0.394 0 0 1 0.392 0.386v3a0.394 0.394 0 0 1 -0.392 0.394h-0.87a0.394 0.394 0 0 1 -0.386 -0.394v-3a0.394 0.394 0 0 1 0.386 -0.386zm0 4.572h0.87a0.394 0.394 0 0 1 0.392 0.394v1.912a0.394 0.394 0 0 1 -0.392 0.394h-0.87a0.394 0.394 0 0 1 -0.386 -0.394v-1.912a0.394 0.394 0 0 1 0.386 -0.394ZM12.61 13.14h0.868a0.394 0.394 0 0 1 0.386 0.392v7.212a0.394 0.394 0 0 1 -0.386 0.386h-0.87a0.394 0.394 0 0 1 -0.392 -0.386V13.53a0.394 0.394 0 0 1 0.392 -0.392Zm0 8.79h0.868a0.394 0.394 0 0 1 0.386 0.386v1.68a0.394 0.394 0 0 1 -0.386 0.392h-0.87a0.394 0.394 0 0 1 -0.392 -0.394v-1.678a0.394 0.394 0 0 1 0.392 -0.386Zm0 3.01h0.86a0.394 0.394 0 0 1 0.394 0.392v7.454a0.394 0.394 0 0 1 -0.394 0.392h-0.86a0.394 0.394 0 0 1 -0.394 -0.392v-7.454a0.394 0.394 0 0 1 0.392 -0.392ZM10.036 19.154h1.12a0.272 0.272 0 0 1 0.264 0.272v5.526a0.272 0.272 0 0 1 -0.264 0.272h-1.112a0.272 0.272 0 0 1 -0.272 -0.272V19.434a0.272 0.272 0 0 1 0.272 -0.28zm0 6.864h1.12a0.272 0.272 0 0 1 0.264 0.272v4.966a0.272 0.272 0 0 1 -0.264 0.272h-1.112a0.272 0.272 0 0 1 -0.272 -0.272v-4.95a0.272 0.272 0 0 1 0.272 -0.272zm0 -11.92h1.12a0.272 0.272 0 0 1 0.264 0.272v3.84a0.272 0.272 0 0 1 -0.264 0.272h-1.112a0.272 0.272 0 0 1 -0.272 -0.272v-3.84a0.272 0.272 0 0 1 0.272 -0.272Zm-2.434 1.194h1.104a0.272 0.272 0 0 1 0.272 0.264v5.768a0.272 0.272 0 0 1 -0.272 0.264h-1.104a0.272 0.272 0 0 1 -0.272 -0.264V15.556a0.272 0.272 0 0 1 0.272 -0.264Zm0 7h1.104a0.272 0.272 0 0 1 0.272 0.272v7.808a0.272 0.272 0 0 1 -0.272 0.272h-1.112a0.272 0.272 0 0 1 -0.264 -0.272v-7.8a0.272 0.272 0 0 1 0.264 -0.272Zm-2.336 11.444h0.87a0.394 0.394 0 0 1 0.394 0.394v1.436a0.394 0.394 0 0 1 -0.394 0.384h-0.86a0.394 0.394 0 0 1 -0.388 -0.392v-1.436a0.394 0.394 0 0 1 0.386 -0.38zm-0.12 -5.124h1.126a0.272 0.272 0 0 1 0.272 0.272v2.524a0.272 0.272 0 0 1 -0.272 0.272h-1.12a0.272 0.272 0 0 1 -0.264 -0.272v-2.524a0.272 0.272 0 0 1 0.266 -0.272zm0 -9.45h1.126a0.272 0.272 0 0 1 0.272 0.264v8.15a0.272 0.272 0 0 1 -0.272 0.272h-1.12a0.272 0.272 0 0 1 -0.264 -0.272V19.426a0.272 0.272 0 0 1 0.266 -0.264Zm-2.426 11.9h1.11a0.272 0.272 0 0 1 0.272 0.27v4.346a0.272 0.272 0 0 1 -0.272 0.272h-1.12a0.272 0.272 0 0 1 -0.27 -0.272v-4.346a0.272 0.272 0 0 1 0.272 -0.272zm0.12 -6.45h0.862a0.394 0.394 0 0 1 0.394 0.386v5.012a0.394 0.394 0 0 1 -0.394 0.392h-0.87a0.394 0.394 0 0 1 -0.392 -0.392v-5.012a0.394 0.394 0 0 1 0.392 -0.386ZM0.28 30.002h1.104c0.15 0 0.272 0.12 0.272 0.272v4.104c0 0.152 -0.12 0.272 -0.272 0.272H0.272A0.272 0.272 0 0 1 0 34.38v-4.104c0 -0.152 0.12 -0.272 0.272 -0.272z" fill="#166dff" stroke-width="2"></path>
</svg>