<?xml version="1.0" standalone="no"?>
<!DOCTYPE svg PUBLIC "-//W3C//DTD SVG 20010904//EN"
 "http://www.w3.org/TR/2001/REC-SVG-20010904/DTD/svg10.dtd">
<svg version="1.0" xmlns="http://www.w3.org/2000/svg"
 width="512.000000pt" height="512.000000pt" viewBox="0 0 512.000000 512.000000"
 preserveAspectRatio="xMidYMid meet">

<g transform="translate(0.000000,512.000000) scale(0.100000,-0.100000)"
fill="#000000" stroke="none">
<path d="M2014 5110 c-12 -5 -26 -15 -30 -22 -5 -7 -11 -98 -14 -203 l-5 -190
-88 -5 c-75 -4 -91 -8 -106 -26 -12 -15 -27 -79 -45 -190 -34 -208 -30 -196
-64 -216 -28 -17 -32 -16 -198 47 -93 36 -178 65 -189 65 -35 0 -63 -28 -111
-111 l-46 -79 -259 0 -259 0 0 139 0 139 30 12 c16 7 47 31 68 54 127 138 64
360 -117 413 -68 19 -126 12 -192 -24 -158 -86 -173 -315 -27 -422 23 -17 48
-31 55 -31 10 0 13 -42 13 -196 l0 -196 29 -29 29 -29 266 0 c247 0 266 -1
266 -17 1 -35 27 -62 162 -173 76 -62 138 -119 138 -126 0 -11 -24 -14 -107
-14 -60 0 -246 -3 -414 -7 l-307 -6 -7 23 c-11 34 -74 99 -119 123 -31 16 -59
21 -111 21 -83 0 -132 -21 -188 -83 -112 -124 -72 -316 83 -397 49 -26 162
-26 214 0 48 24 99 74 117 114 l13 29 164 6 c91 4 242 7 336 7 l170 0 -74 -69
c-65 -62 -72 -72 -67 -98 3 -16 42 -92 86 -168 l79 -140 4 -195 3 -195 -221
-3 -221 -2 -13 29 c-17 42 -76 100 -124 122 -58 26 -153 25 -211 -2 -56 -26
-117 -95 -133 -147 -15 -51 -15 -114 0 -166 16 -55 99 -138 154 -154 60 -17
142 -15 190 7 48 22 107 80 124 121 l12 30 282 0 c282 0 283 0 304 23 21 23
22 31 22 258 l0 234 138 51 c132 50 138 51 165 36 33 -20 29 -8 63 -217 32
-195 42 -215 114 -215 l40 0 0 -214 0 -215 -146 -3 c-146 -3 -146 -3 -170 -31
l-24 -28 0 -637 0 -637 -385 -385 c-423 -423 -414 -412 -356 -471 l29 -29
1392 0 1392 0 29 29 c57 58 59 55 -271 386 l-300 300 0 227 0 227 95 158 c53
87 100 157 105 155 6 -1 80 -42 166 -91 85 -49 199 -111 252 -138 l97 -48 295
-3 c321 -3 331 -2 350 51 6 18 10 129 10 271 l0 241 83 82 82 83 3 145 3 145
78 0 c98 0 155 26 188 85 42 75 36 98 -116 440 l-138 309 40 59 c115 169 142
389 82 679 -39 190 -146 427 -259 578 -84 112 -251 272 -357 342 -88 58 -432
238 -455 238 -28 0 -65 -25 -85 -57 l-21 -33 -289 0 -289 0 0 85 c0 100 -17
151 -55 165 -33 12 -891 12 -921 0z m806 -259 c0 -84 3 -102 21 -125 l20 -26
291 0 c240 0 289 -2 285 -14 -3 -7 -61 -91 -130 -187 -68 -96 -132 -189 -141
-206 l-17 -33 -154 0 -155 0 -20 39 c-22 44 -54 71 -85 71 -11 0 -96 -29 -190
-64 -169 -64 -170 -64 -200 -47 -29 17 -31 21 -62 201 -18 102 -32 186 -32
187 -1 1 -11 11 -23 23 -14 13 -35 20 -60 20 l-38 0 0 130 0 130 345 0 345 0
0 -99z m-2249 -100 c32 -33 36 -58 14 -100 -24 -47 -83 -56 -129 -20 -20 16
-26 29 -26 60 0 83 83 118 141 60z m3259 -61 c66 -33 144 -75 174 -95 318
-203 533 -537 591 -915 37 -237 6 -385 -111 -528 -24 -30 -44 -64 -44 -76 0
-12 63 -163 140 -336 77 -173 142 -322 146 -332 5 -17 -3 -18 -111 -18 -115 0
-117 0 -146 -29 l-29 -29 0 -141 0 -141 -48 0 c-91 0 -203 44 -284 111 -25 21
-58 43 -72 49 -51 19 -106 -25 -106 -84 0 -62 174 -183 320 -222 36 -10 67
-19 69 -20 2 -2 -8 -17 -23 -34 l-26 -32 0 -229 0 -229 -210 0 -210 0 -103 51
c-131 66 -290 156 -456 259 l-131 81 0 292 0 292 188 74 c118 46 195 82 210
98 21 23 22 31 22 225 l0 201 -125 167 -125 167 0 489 0 489 181 253 c99 138
184 252 190 252 5 0 63 -27 129 -60z m-1697 -337 c17 -100 34 -174 43 -184 26
-29 155 -100 182 -101 15 0 94 25 176 56 82 31 152 56 156 56 10 0 102 -161
98 -171 -2 -3 -59 -53 -128 -109 -69 -56 -129 -109 -134 -117 -12 -21 -14
-193 -3 -219 5 -12 67 -68 138 -125 70 -57 128 -107 129 -110 0 -13 -93 -169
-101 -169 -5 0 -75 25 -155 55 -81 30 -159 55 -174 55 -29 0 -125 -51 -172
-92 -26 -21 -30 -37 -56 -193 l-28 -170 -99 0 -100 0 -26 150 c-33 197 -35
202 -67 221 -15 10 -51 32 -79 51 -30 18 -66 33 -83 33 -16 0 -96 -25 -176
-55 -81 -30 -151 -55 -155 -55 -11 0 -93 141 -93 161 -1 9 53 61 119 116 66
55 126 106 133 115 9 11 12 47 10 124 l-3 109 -130 108 c-71 60 -132 113 -133
118 -4 11 87 169 96 169 4 0 72 -25 152 -55 156 -59 197 -65 238 -36 15 10 46
28 69 40 24 12 49 31 57 44 8 12 27 95 42 185 l27 162 101 0 102 0 27 -167z
m1027 -428 l0 -175 -205 0 c-113 0 -205 2 -205 4 0 2 35 32 78 66 134 110 152
130 152 170 0 19 -9 50 -20 68 -11 18 -20 35 -20 37 0 3 50 5 110 5 l110 0 0
-175z m-2849 -284 c32 -33 36 -58 14 -100 -43 -85 -174 -28 -151 64 17 66 88
84 137 36z m2849 -226 l0 -175 -110 0 c-60 0 -110 2 -110 4 0 3 9 21 21 40 13
23 19 48 17 73 -3 34 -12 45 -105 123 -56 47 -108 91 -115 98 -10 9 29 12 195
12 l207 0 0 -175z m-551 -406 c57 -21 115 -39 128 -39 23 0 58 30 93 79 14 20
23 21 225 22 l210 1 78 -103 77 -102 0 -69 0 -68 -175 0 -175 0 0 -85 0 -84
97 -3 97 -3 -122 -48 c-73 -29 -128 -57 -137 -70 -11 -15 -15 -49 -15 -119 l0
-98 -470 0 -470 0 0 215 0 215 76 0 c122 0 120 -2 160 242 26 163 28 169 57
187 30 19 30 19 96 -6 36 -14 113 -42 170 -64z m-2031 -395 c43 -49 14 -127
-54 -140 -24 -4 -37 0 -62 21 -45 38 -45 92 0 130 38 32 81 29 116 -11z m1642
-1190 l0 -625 -82 -95 -83 -95 -3 206 -2 205 -85 0 -85 0 0 -307 -1 -308 -105
-118 -106 -117 -306 0 -307 0 325 325 325 325 3 615 3 615 254 0 255 0 0 -626z
m342 351 l3 -275 168 -168 c135 -135 167 -173 167 -195 l0 -27 -255 0 -255 0
0 470 0 470 85 0 84 0 3 -275z m428 92 c0 -207 -1 -205 80 -257 47 -30 50 -34
37 -54 -7 -11 -40 -65 -72 -118 -31 -54 -60 -98 -64 -98 -3 0 -59 53 -123 117
l-118 118 0 237 0 238 130 0 130 0 0 -183z m-430 -1312 l0 -385 -330 0 c-274
0 -330 2 -323 13 4 8 112 132 238 276 127 144 233 270 237 279 4 9 7 59 7 110
l1 92 85 0 85 0 0 -385z m342 240 l3 -145 240 -240 240 -240 -328 0 -327 0 0
385 0 385 84 0 85 0 3 -145z"/>
<path d="M3500 4095 l0 -165 85 0 85 0 0 165 0 165 -85 0 -85 0 0 -165z"/>
<path d="M3500 3670 l0 -80 85 0 85 0 0 80 0 80 -85 0 -85 0 0 -80z"/>
<path d="M3500 3325 l0 -85 85 0 85 0 0 85 0 85 -85 0 -85 0 0 -85z"/>
<path d="M4213 3386 c-27 -23 -28 -29 -31 -124 l-4 -100 -98 -4 c-88 -3 -102
-6 -125 -28 -34 -32 -34 -82 0 -115 24 -24 27 -25 185 -25 158 0 161 1 185 25
24 24 25 27 25 185 0 158 -1 161 -25 185 -31 32 -75 32 -112 1z"/>
<path d="M1919 3997 c-173 -49 -275 -207 -247 -383 17 -107 88 -203 187 -251
47 -23 70 -27 141 -28 77 0 92 3 152 33 73 36 124 87 160 161 33 67 33 216 0
282 -73 148 -243 228 -393 186z m154 -171 c72 -30 117 -121 97 -196 -21 -79
-86 -130 -166 -130 -146 0 -226 169 -131 277 53 60 129 79 200 49z"/>
<path d="M2390 2645 l0 -85 85 0 85 0 0 85 0 85 -85 0 -85 0 0 -85z"/>
<path d="M2730 2645 l0 -85 85 0 85 0 0 85 0 85 -85 0 -85 0 0 -85z"/>
<path d="M1880 1620 l0 -80 85 0 85 0 0 80 0 80 -85 0 -85 0 0 -80z"/>
<path d="M1880 1280 l0 -80 85 0 85 0 0 80 0 80 -85 0 -85 0 0 -80z"/>
</g>
</svg>
