<?xml version="1.0" standalone="no"?>
<!DOCTYPE svg PUBLIC "-//W3C//DTD SVG 20010904//EN"
 "http://www.w3.org/TR/2001/REC-SVG-20010904/DTD/svg10.dtd">
<svg version="1.0" xmlns="http://www.w3.org/2000/svg"
 width="512.000000pt" height="512.000000pt" viewBox="0 0 512.000000 512.000000"
 preserveAspectRatio="xMidYMid meet">

<g transform="translate(0.000000,512.000000) scale(0.100000,-0.100000)"
fill="#000000" stroke="none">
<path d="M2396 5099 l-26 -20 0 -294 0 -294 26 -20 c15 -12 33 -21 40 -21 23
0 63 22 70 39 5 9 10 81 14 159 l5 144 110 -158 c61 -88 122 -165 138 -174 24
-13 30 -13 54 0 50 28 53 45 53 323 0 286 -5 319 -55 331 -37 9 -84 -11 -90
-38 -3 -11 -6 -86 -8 -165 l-2 -145 -110 159 c-60 88 -117 167 -127 177 -24
24 -59 23 -92 -3z"/>
<path d="M3042 4809 c-27 -29 -29 -80 -3 -103 10 -9 68 -30 128 -46 371 -97
712 -291 977 -556 248 -247 416 -516 531 -847 20 -56 43 -109 52 -119 36 -40
123 -5 123 50 0 32 -57 195 -110 316 -280 628 -821 1096 -1495 1291 -137 40
-177 43 -203 14z"/>
<path d="M1960 4784 c-385 -118 -702 -307 -980 -584 -253 -253 -433 -541 -556
-893 -39 -114 -42 -149 -14 -177 25 -25 81 -27 102 -2 9 9 32 67 52 127 46
137 165 381 244 500 292 437 715 747 1217 891 65 19 127 42 137 51 24 22 23
78 -2 103 -28 28 -66 25 -200 -16z"/>
<path d="M2603 4238 c-28 -14 -25 -5 -154 -443 -61 -209 -113 -381 -114 -383
-1 -2 -231 129 -511 289 -348 200 -518 292 -538 292 -35 0 -66 -34 -66 -72 0
-26 383 -745 418 -783 36 -42 122 -6 122 50 0 16 -55 129 -135 276 -75 137
-134 250 -133 251 4 3 778 -441 790 -453 7 -7 -63 -266 -75 -278 -3 -3 -281
-80 -618 -170 -410 -111 -620 -172 -633 -184 -25 -24 -25 -76 0 -100 13 -13
156 -60 414 -136 217 -64 396 -117 398 -119 2 -2 -127 -231 -287 -510 -201
-349 -291 -515 -291 -536 0 -37 32 -69 69 -69 19 0 197 91 518 266 268 146
500 272 514 279 l26 14 108 -402 c59 -221 113 -408 118 -416 19 -23 54 -31 86
-20 22 8 34 22 45 52 32 85 136 455 136 480 0 15 -9 36 -20 47 -24 24 -82 27
-101 4 -8 -9 -30 -66 -49 -127 l-35 -111 -138 510 c-86 319 -144 515 -155 526
-9 9 -242 82 -521 164 -496 146 -503 148 -465 160 21 7 250 69 509 139 291 78
476 133 486 143 10 9 83 243 165 519 81 277 149 502 151 500 1 -2 61 -221 133
-488 72 -266 136 -497 142 -512 6 -15 18 -32 27 -37 10 -5 240 -74 511 -155
272 -80 496 -147 497 -149 2 -2 -176 -51 -394 -110 -219 -60 -449 -122 -512
-139 -82 -22 -117 -37 -127 -52 -19 -29 -124 -388 -124 -423 0 -16 9 -37 19
-46 11 -10 265 -159 566 -332 358 -205 557 -314 575 -314 39 0 71 29 72 65 0
21 -81 180 -280 545 -155 283 -278 516 -274 517 4 1 185 50 402 108 333 90
399 110 418 131 12 14 22 31 22 39 0 26 -22 63 -44 72 -11 6 -194 61 -406 123
-212 62 -386 114 -388 116 -2 1 128 231 289 511 188 326 292 518 292 535 0 39
-29 68 -69 68 -23 0 -165 -72 -520 -266 -512 -279 -532 -290 -538 -283 -2 2
-52 182 -111 399 -90 334 -110 398 -131 418 -27 24 -47 26 -81 10z m1159 -580
c-11 -18 -113 -195 -227 -393 -113 -198 -210 -363 -213 -367 -4 -4 -69 11
-144 34 l-136 41 -31 111 c-17 62 -33 125 -36 142 l-6 29 398 217 c219 119
402 217 406 217 5 1 0 -14 -11 -31z m-1703 -1467 c73 -22 135 -41 137 -44 7
-7 74 -249 74 -267 0 -9 -147 -95 -400 -232 -220 -120 -402 -218 -404 -218 -3
0 81 150 186 333 254 442 268 467 272 467 2 0 63 -18 135 -39z m1474 -382
c120 -220 217 -402 215 -403 -3 -3 -782 444 -792 454 -5 6 69 268 78 277 6 6
247 71 266 72 10 1 90 -137 233 -400z"/>
<path d="M102 2890 c-50 -21 -49 -38 17 -337 34 -153 69 -288 77 -300 16 -26
53 -38 84 -28 11 4 46 45 76 93 l56 86 51 -82 c66 -104 102 -123 152 -79 22
19 32 54 85 291 33 148 60 282 60 297 0 32 -40 69 -75 69 -51 0 -63 -25 -107
-223 l-41 -187 -40 60 c-61 92 -109 93 -169 1 -18 -28 -36 -51 -39 -51 -3 0
-23 80 -44 177 -47 216 -66 243 -143 213z"/>
<path d="M4625 2893 c-11 -3 -28 -12 -37 -21 -16 -14 -18 -42 -18 -312 0 -275
1 -298 18 -313 16 -15 47 -17 228 -17 115 0 214 4 220 8 22 14 35 53 29 84
-11 47 -50 58 -215 58 l-140 0 0 55 0 55 119 0 c105 0 121 2 145 21 34 27 36
77 3 107 -20 19 -36 22 -142 24 l-120 3 0 50 0 50 145 2 c80 2 155 5 166 8 27
6 47 53 38 90 -12 47 -51 55 -246 54 -95 -1 -182 -4 -193 -6z"/>
<path d="M2580 2780 c-108 -20 -180 -110 -180 -222 1 -126 94 -218 220 -218
127 0 222 94 222 220 0 140 -126 246 -262 220z m94 -170 c24 -24 25 -74 1
-100 -22 -25 -81 -27 -107 -3 -24 21 -24 85 0 105 36 32 72 31 106 -2z"/>
<path d="M4738 2033 c-8 -10 -34 -78 -58 -152 -75 -233 -216 -492 -373 -686
-83 -103 -270 -284 -372 -361 -237 -180 -433 -273 -820 -391 -68 -20 -87 -49
-69 -100 17 -51 49 -56 156 -29 754 196 1360 758 1612 1495 50 145 57 198 28
224 -25 22 -85 22 -104 0z"/>
<path d="M410 1990 c-28 -28 -25 -63 15 -178 191 -548 565 -996 1072 -1281
166 -94 497 -221 574 -221 58 0 93 85 51 123 -10 10 -64 31 -120 47 -488 146
-912 462 -1195 890 -86 131 -194 350 -242 495 -21 61 -44 118 -53 128 -21 24
-77 22 -102 -3z"/>
<path d="M2520 731 c-69 -21 -139 -80 -159 -134 -15 -39 -14 -111 3 -150 34
-80 126 -127 261 -134 109 -6 135 -19 135 -69 0 -102 -172 -126 -302 -43 -49
31 -50 32 -83 16 -63 -30 -59 -99 8 -145 74 -51 132 -67 237 -67 77 1 105 5
148 24 92 41 142 118 142 216 0 83 -34 140 -113 190 -19 13 -60 20 -137 25
-121 8 -160 24 -160 64 0 65 121 86 196 34 49 -34 78 -35 109 -3 35 34 32 70
-7 109 -60 60 -195 92 -278 67z"/>
</g>
</svg>
