<?xml version="1.0" standalone="no"?>
<!DOCTYPE svg PUBLIC "-//W3C//DTD SVG 20010904//EN"
 "http://www.w3.org/TR/2001/REC-SVG-20010904/DTD/svg10.dtd">
<svg version="1.0" xmlns="http://www.w3.org/2000/svg"
 width="512.000000pt" height="512.000000pt" viewBox="0 0 512.000000 512.000000"
 preserveAspectRatio="xMidYMid meet">

<g transform="translate(0.000000,512.000000) scale(0.100000,-0.100000)"
fill="#000000" stroke="none">
<path d="M2530 4834 c-6 -14 -10 -36 -10 -48 0 -13 -3 -37 -6 -53 l-6 -30
-128 -12 c-289 -26 -531 -95 -783 -223 -217 -110 -376 -226 -548 -397 -362
-363 -573 -815 -620 -1332 -13 -144 -2 -130 -112 -145 -53 -7 -78 -33 -52 -54
10 -9 107 -28 146 -30 3 0 12 -61 18 -135 83 -920 735 -1679 1632 -1899 116
-28 311 -56 394 -56 l53 0 8 -66 c7 -74 34 -115 59 -94 14 12 19 31 30 113 l6
47 57 0 c229 0 578 91 831 215 677 335 1123 986 1192 1742 l12 131 61 7 c77 9
98 20 94 48 -3 19 -12 23 -78 32 l-75 10 -12 120 c-29 305 -95 540 -223 795
-109 217 -229 382 -409 560 -357 354 -811 565 -1315 611 l-135 12 -6 56 c-3
31 -10 66 -15 79 -13 31 -48 29 -60 -4z m-34 -236 c-4 -23 -8 -43 -9 -45 -1
-1 -52 -7 -112 -13 -466 -47 -892 -248 -1220 -576 -329 -328 -526 -746 -575
-1219 -6 -60 -13 -111 -15 -113 -2 -2 -22 -6 -45 -9 l-42 -6 6 84 c30 368 145
707 344 1008 157 238 403 474 653 627 287 175 665 292 983 303 l39 1 -7 -42z
m272 32 c626 -67 1178 -402 1528 -927 179 -269 300 -612 334 -942 14 -147 15
-141 -22 -141 -18 0 -39 4 -45 8 -8 5 -17 51 -23 113 -46 467 -245 892 -570
1219 -343 345 -763 538 -1272 585 -61 6 -68 9 -68 28 0 12 -3 32 -6 45 -8 26
0 27 144 12z m-293 -182 c-3 -18 -23 -166 -45 -328 -53 -394 -49 -370 -69
-370 -33 0 -177 -42 -256 -75 -96 -39 -188 -92 -268 -152 -31 -23 -59 -43 -62
-43 -2 0 -90 65 -196 145 -106 80 -197 144 -202 142 -6 -2 -15 -10 -21 -19 -8
-13 17 -52 125 -193 74 -96 140 -184 147 -194 11 -16 6 -28 -43 -92 -96 -127
-187 -339 -211 -490 -5 -31 -11 -39 -33 -43 -63 -13 -703 -97 -707 -93 -7 6
14 194 32 282 65 332 221 648 448 908 268 305 660 532 1061 612 136 27 166 31
248 33 l58 2 -6 -32z m367 17 c876 -132 1545 -833 1638 -1719 6 -54 8 -101 5
-104 -2 -3 -167 17 -366 44 l-361 50 -28 109 c-44 177 -103 301 -201 431 l-50
66 93 121 c51 67 116 153 145 191 56 73 61 87 38 106 -17 14 -4 23 -206 -131
-93 -71 -176 -133 -187 -140 -16 -10 -27 -5 -78 33 -80 61 -172 113 -269 153
-80 33 -223 75 -257 75 -10 0 -18 3 -18 8 0 11 -89 663 -94 695 -5 26 -5 27
44 27 28 0 96 -7 152 -15z m-142 -885 l100 -735 -105 -105 -105 -105 1 855 c1
470 3 848 5 840 2 -8 49 -346 104 -750z m-170 -97 l0 -848 -106 106 -105 105
102 742 c57 408 105 742 106 742 2 0 3 -381 3 -847z m-165 165 c-4 -24 -8 -44
-9 -44 0 -1 -37 -12 -81 -23 -100 -28 -227 -87 -311 -146 -36 -25 -68 -45 -72
-45 -4 1 -20 12 -37 25 -29 24 -29 25 -10 40 55 44 166 111 241 147 68 32 237
85 277 88 5 0 6 -19 2 -42z m515 10 c119 -31 294 -121 395 -203 20 -16 20 -17
-10 -41 -16 -13 -34 -24 -38 -24 -5 0 -29 16 -55 36 -66 51 -232 129 -327 155
-44 12 -81 22 -81 23 -1 0 -5 20 -9 44 l-7 43 29 -6 c15 -4 62 -16 103 -27z
m-561 -344 c-16 -120 -31 -219 -32 -221 -1 -1 -78 55 -170 125 l-168 127 33
28 c44 37 188 110 268 135 83 27 94 30 98 27 1 -1 -12 -100 -29 -221z m651
155 c86 -40 200 -109 200 -120 0 -7 -332 -261 -336 -257 -1 2 -14 91 -28 198
-15 107 -29 207 -32 222 l-5 26 58 -15 c32 -8 96 -33 143 -54z m150 -304
c-140 -140 -258 -251 -261 -247 -4 4 -9 29 -11 55 l-3 49 260 198 c143 109
262 199 265 199 3 1 -110 -114 -250 -254z m-847 -194 c-3 -25 -9 -49 -12 -53
-4 -4 -119 105 -256 243 l-250 251 262 -197 262 -198 -6 -46z m-63 -115 c-3
-2 -29 -6 -59 -8 l-53 -3 -200 265 -200 265 258 -257 c142 -141 256 -259 254
-262z m1014 257 c-103 -137 -193 -254 -199 -261 -9 -10 -27 -12 -70 -7 l-57 8
253 253 c140 140 255 254 257 254 1 0 -82 -111 -184 -247z m-1494 109 c0 -2
-16 -24 -36 -50 -51 -67 -130 -233 -157 -329 -23 -85 -30 -93 -85 -93 -25 0
-25 -4 9 130 25 95 115 278 175 353 l46 59 24 -33 c13 -18 24 -35 24 -37z
m1766 -4 c83 -113 151 -272 188 -440 6 -26 4 -28 -26 -28 -18 0 -38 4 -43 8
-6 4 -20 43 -33 87 -27 96 -106 261 -157 328 l-36 47 21 30 c12 17 26 30 31
30 5 0 30 -28 55 -62z m-1592 -217 c69 -91 124 -166 122 -168 -6 -7 -437 -65
-442 -60 -7 6 35 136 66 204 33 71 111 195 121 191 4 -2 64 -77 133 -167z
m1495 104 c23 -36 55 -93 71 -128 32 -71 73 -198 65 -205 -5 -6 -415 48 -432
57 -7 4 36 68 115 173 70 92 129 167 132 167 3 1 25 -28 49 -64z m-1019 -410
l105 -105 -845 1 -845 1 730 103 c402 56 735 103 740 104 6 0 57 -46 115 -104z
m1207 5 c400 -55 735 -102 743 -104 8 -2 -370 -4 -840 -5 l-855 -1 105 105
c58 58 108 105 111 105 4 0 335 -45 736 -100z m-1208 -276 l-105 -105 -745
101 c-409 55 -751 102 -759 104 -8 2 374 4 850 5 l865 1 -106 -106z m1951 100
c-8 -2 -346 -49 -750 -104 l-734 -101 -106 106 -105 105 855 -1 c470 -1 848
-3 840 -5z m-3763 -37 c1 -1 7 -52 13 -112 24 -244 86 -467 190 -680 298 -618
884 -1032 1571 -1110 79 -9 144 -18 145 -18 1 -1 4 -21 8 -44 7 -50 17 -48
-135 -33 -394 40 -795 203 -1096 445 -83 66 -245 228 -315 312 -196 240 -353
562 -418 859 -22 99 -49 300 -50 363 l0 34 42 -7 c23 -4 43 -8 45 -9z m4073
-19 c-2 -140 -52 -404 -111 -577 -264 -773 -957 -1321 -1777 -1402 -67 -6
-125 -10 -128 -7 -2 3 -2 24 2 46 l6 41 67 6 c298 28 557 102 791 227 294 157
536 374 719 647 195 289 301 598 336 973 l6 67 37 4 c20 2 40 4 45 5 4 1 7
-13 7 -30z m-3640 -38 c200 -27 364 -51 365 -52 1 -2 8 -32 14 -66 33 -169
116 -348 234 -503 l27 -35 -145 -190 c-92 -120 -144 -196 -142 -209 5 -43 42
-25 212 106 94 72 180 138 191 145 20 14 27 11 95 -41 124 -93 344 -191 474
-210 25 -4 49 -13 51 -19 6 -15 103 -720 100 -724 -6 -6 -217 21 -305 38 -293
60 -609 212 -841 405 -358 299 -606 730 -673 1171 -19 121 -30 234 -24 234 2
0 168 -22 367 -50z m1528 -1217 l-3 -428 -103 745 -102 744 102 103 103 103 3
-419 c1 -231 1 -612 0 -848z m172 311 c-55 -412 -103 -753 -105 -759 -2 -5 -4
379 -4 855 l-1 865 106 -106 106 -106 -102 -749z m1785 894 c-47 -483 -219
-865 -540 -1197 -325 -336 -732 -534 -1194 -581 -57 -5 -106 -9 -107 -7 -2 2
18 165 46 362 32 238 53 361 62 366 7 5 20 9 29 9 9 0 57 11 105 25 117 34
291 120 383 190 l74 56 192 -145 c105 -81 199 -146 208 -146 9 0 18 9 22 20 5
14 -30 66 -140 210 l-146 192 50 67 c100 134 184 324 212 474 l12 64 361 50
c199 28 365 51 369 52 4 0 5 -27 2 -61z m-2981 -58 c6 0 17 -26 25 -57 22 -96
79 -227 138 -315 30 -46 55 -86 56 -90 3 -9 -36 -68 -44 -68 -4 0 -30 34 -58
75 -88 127 -148 268 -186 439 -6 28 -5 29 26 22 17 -3 37 -6 43 -6z m2180 -17
c-37 -169 -97 -312 -185 -438 -28 -41 -55 -75 -58 -75 -4 0 -17 14 -30 31
l-23 31 39 56 c80 116 117 194 158 332 24 80 18 75 98 89 4 0 5 -11 1 -26z
m-1849 -28 c104 -15 191 -27 192 -28 5 -5 -251 -332 -259 -332 -30 0 -154 252
-182 369 -7 28 -6 28 26 23 18 -3 118 -18 223 -32z m1699 8 c-28 -117 -153
-368 -182 -368 -6 0 -68 74 -137 165 l-126 165 218 31 c120 18 221 32 226 33
4 0 4 -11 1 -26z m-1332 -62 c3 -3 -109 -123 -249 -266 -141 -143 -244 -244
-231 -225 13 19 105 142 203 272 l178 237 46 -6 c25 -3 49 -8 53 -12z m1033
-266 l188 -250 -256 255 c-141 140 -255 256 -253 258 2 2 26 7 53 11 38 6 51
4 64 -8 9 -9 101 -128 204 -266z m-964 146 l4 -44 -265 -200 -265 -200 255
256 c163 165 257 252 261 244 4 -6 9 -32 10 -56z m844 -182 l250 -251 -262
197 -263 198 6 41 c6 44 12 66 16 66 2 0 116 -113 253 -251z m-796 -164 c16
-115 28 -211 26 -214 -8 -7 -152 42 -218 76 -76 38 -177 102 -176 112 1 13
334 258 337 247 1 -6 15 -105 31 -221z m684 103 c89 -66 164 -123 167 -125 9
-8 -58 -53 -150 -102 -88 -45 -235 -99 -245 -89 -3 2 9 101 25 219 17 118 30
215 30 216 0 9 28 -10 173 -119z m-898 -299 c44 -21 117 -48 163 -62 45 -13
83 -25 85 -28 3 -2 7 -21 11 -41 6 -33 4 -38 -12 -38 -44 0 -203 54 -297 100
-90 45 -216 129 -222 148 -2 4 11 17 28 29 l31 21 67 -45 c36 -26 102 -63 146
-84z m1179 82 c9 -14 -115 -99 -219 -151 -93 -46 -253 -100 -296 -100 -20 0
-22 15 -10 59 5 19 21 27 91 48 101 29 244 96 320 151 l55 40 27 -20 c15 -10
30 -23 32 -27z"/>
</g>
</svg>
