<?xml version="1.0" standalone="no"?>
<!DOCTYPE svg PUBLIC "-//W3C//DTD SVG 20010904//EN"
 "http://www.w3.org/TR/2001/REC-SVG-20010904/DTD/svg10.dtd">
<svg version="1.0" xmlns="http://www.w3.org/2000/svg"
 width="512.000000pt" height="512.000000pt" viewBox="0 0 512.000000 512.000000"
 preserveAspectRatio="xMidYMid meet">

<g transform="translate(0.000000,512.000000) scale(0.100000,-0.100000)"
fill="#000000" stroke="none">
<path d="M3352 5012 c-14 -14 -23 -52 -36 -158 -24 -187 -22 -184 -82 -204
-27 -10 -69 -27 -94 -40 -52 -27 -41 -32 -194 89 -154 121 -138 124 -337 -74
-166 -165 -194 -202 -184 -236 4 -10 49 -73 101 -139 52 -66 94 -125 94 -131
0 -5 -11 -31 -24 -57 -13 -26 -29 -65 -36 -87 -7 -22 -16 -44 -20 -48 -4 -5
-75 -17 -158 -27 -163 -20 -189 -29 -197 -63 -3 -12 -4 -130 -3 -261 l3 -239
25 -18 c18 -13 67 -23 176 -35 l151 -17 38 -91 c20 -50 38 -99 39 -108 0 -9
-41 -72 -93 -139 -70 -90 -94 -129 -94 -151 0 -25 27 -57 174 -204 151 -151
178 -174 205 -174 24 0 59 22 157 99 l127 99 47 -23 c27 -12 58 -25 71 -29 22
-7 22 -8 22 -225 0 -214 0 -218 23 -239 29 -27 67 -28 98 -3 l24 19 3 479 c2
263 0 492 -3 510 -5 26 -20 42 -84 87 -174 122 -260 286 -261 495 0 184 82
351 228 466 l57 45 5 -257 c5 -242 6 -261 28 -308 108 -235 429 -239 544 -7
21 45 23 61 28 310 l5 262 57 -45 c102 -80 180 -198 212 -322 20 -78 20 -218
0 -297 -35 -137 -132 -271 -251 -348 -36 -23 -69 -53 -74 -66 -14 -35 -12
-1195 2 -1225 11 -24 47 -47 73 -47 7 0 25 9 40 21 l26 20 0 332 0 332 71 32
70 32 127 -99 c104 -82 133 -100 161 -100 30 0 50 17 197 161 89 89 168 173
174 188 16 39 5 60 -99 191 -52 66 -89 121 -87 130 11 36 75 183 83 190 4 4
75 15 158 25 155 17 178 24 189 51 3 8 6 126 6 260 0 228 -1 245 -19 263 -22
22 -36 25 -210 46 -68 8 -126 17 -129 19 -5 5 -70 160 -79 188 -3 12 25 56 86
132 106 134 114 150 96 191 -7 17 -87 103 -177 193 -128 126 -170 162 -190
162 -18 0 -66 -31 -150 -96 -68 -53 -128 -98 -135 -101 -6 -2 -29 5 -52 16
-22 12 -65 30 -96 42 -62 23 -58 15 -75 164 -18 157 -22 177 -42 197 -17 17
-38 18 -268 18 -229 0 -252 -2 -268 -18z m440 -280 c9 -80 23 -153 31 -165 9
-14 41 -30 88 -45 40 -13 108 -41 151 -62 43 -22 89 -40 102 -40 14 0 71 37
146 96 l123 96 103 -103 c57 -57 104 -106 104 -109 0 -3 -41 -56 -90 -119 -50
-63 -93 -125 -96 -137 -4 -16 8 -53 39 -116 25 -51 55 -123 67 -161 14 -42 29
-71 42 -78 12 -6 73 -17 137 -25 64 -8 131 -16 149 -19 l32 -6 0 -144 c0 -79
-3 -146 -7 -148 -5 -3 -69 -12 -143 -21 -74 -10 -147 -22 -162 -27 -27 -11
-30 -16 -68 -129 -12 -36 -37 -94 -56 -130 -19 -35 -34 -76 -34 -90 0 -16 33
-66 95 -145 l95 -120 -103 -102 c-56 -57 -105 -103 -109 -103 -4 0 -60 41
-124 90 -132 103 -145 106 -227 60 -30 -16 -57 -30 -60 -30 -4 0 -7 74 -7 164
l0 164 50 37 c133 98 249 272 286 430 23 98 21 259 -5 356 -53 205 -199 386
-386 479 -96 48 -135 51 -164 14 -20 -26 -21 -38 -21 -333 0 -271 -2 -310 -18
-341 -51 -103 -204 -108 -259 -8 -16 29 -19 70 -23 356 -5 306 -6 324 -24 338
-42 30 -116 7 -237 -72 -132 -87 -242 -232 -295 -389 -38 -115 -45 -275 -15
-399 40 -167 155 -342 280 -427 l50 -34 1 -167 0 -168 -27 12 c-16 7 -41 20
-58 30 -58 35 -82 26 -211 -77 l-119 -94 -107 107 c-93 92 -106 108 -94 122 7
8 50 62 95 119 91 116 96 136 57 204 -23 39 -49 103 -90 218 -12 34 -25 50
-44 58 -21 8 -258 41 -295 41 -6 0 -11 300 -4 300 241 29 300 39 317 55 10 9
30 53 45 98 15 45 42 111 61 147 19 35 34 77 34 92 0 19 -27 61 -90 142 -49
63 -90 119 -90 123 0 5 46 55 103 111 l103 103 115 -91 c63 -49 124 -93 137
-96 16 -5 54 8 120 39 53 25 123 53 154 62 72 20 93 46 102 122 3 32 11 97 18
146 l11 88 151 -3 151 -3 17 -143z"/>
<path d="M1681 2280 c-51 -14 -187 -79 -455 -220 -210 -110 -386 -200 -392
-200 -5 0 -19 20 -32 44 -38 71 -116 113 -192 103 -46 -6 -454 -209 -494 -246
-37 -34 -56 -80 -56 -136 0 -39 45 -134 354 -753 225 -449 364 -717 382 -734
38 -35 78 -50 136 -49 39 0 82 18 278 116 203 103 234 121 257 156 36 54 41
122 15 182 l-21 46 51 31 c92 57 144 72 258 77 l105 5 525 -132 c343 -85 561
-135 627 -142 179 -20 386 15 573 95 93 41 1270 788 1323 841 22 21 51 63 66
95 22 47 26 70 26 146 0 84 -2 95 -34 153 -69 127 -174 187 -316 180 -80 -4
-81 -4 -548 -216 -257 -117 -469 -212 -471 -212 -2 0 -5 33 -8 74 -8 117 -68
216 -164 268 -28 15 -354 115 -764 233 l-715 207 -120 4 c-97 3 -134 0 -194
-16z m984 -339 c385 -111 715 -210 734 -219 51 -24 91 -94 91 -159 0 -56 -23
-114 -57 -145 -27 -25 -87 -48 -124 -48 -17 0 -205 50 -417 111 -414 119 -412
118 -447 66 -20 -31 -11 -73 19 -92 38 -24 787 -235 835 -235 58 0 109 14 191
52 36 16 304 138 595 270 586 266 595 269 680 228 114 -55 139 -216 47 -302
-43 -41 -1189 -768 -1268 -804 -153 -71 -343 -103 -506 -85 -59 7 -299 62
-620 142 -496 125 -528 132 -623 132 -124 0 -202 -19 -314 -79 -46 -24 -85
-44 -87 -44 -10 0 -494 984 -487 990 9 9 524 280 674 356 124 62 175 74 289
71 89 -4 137 -16 795 -206z m-2003 -98 c9 -10 168 -323 354 -695 277 -555 337
-681 328 -695 -18 -30 -384 -213 -419 -210 -29 2 -39 20 -372 682 -219 435
-342 689 -340 705 2 22 27 38 202 127 110 56 207 102 216 103 9 0 23 -8 31
-17z"/>
</g>
</svg>
